# Blender 3.4.0
# www.blender.org
mtllib payload.mtl
o Cube
v -0.096891 -0.060742 0.119669
v -0.099919 -0.047454 0.123409
v -0.099919 -0.062640 0.093491
v -0.109002 -0.047454 0.093491
v -0.075696 -0.062640 0.123409
v -0.075696 -0.047454 0.134628
v -0.075696 -0.068334 0.093491
v -0.099919 -0.028473 0.123409
v -0.099919 -0.009491 0.123409
v -0.109002 -0.028473 0.093491
v -0.109002 -0.009491 0.093491
v -0.075696 -0.028473 0.134628
v -0.075696 -0.009491 0.134628
v -0.099919 -0.062640 0.056095
v -0.109002 -0.047454 0.056095
v -0.099919 -0.062640 0.018698
v -0.109002 -0.047454 0.018698
v -0.075696 -0.068334 0.056095
v -0.075696 -0.068334 0.018698
v -0.109002 -0.028473 0.056095
v -0.109002 -0.009491 0.056095
v -0.109002 -0.028473 0.018698
v -0.109002 -0.009491 0.018698
v -0.045417 -0.062640 0.123409
v -0.045417 -0.047454 0.134628
v -0.045417 -0.068334 0.093491
v -0.015139 -0.062640 0.123409
v -0.015139 -0.047454 0.134628
v -0.015139 -0.068334 0.093491
v -0.045417 -0.028473 0.134628
v -0.045417 -0.009491 0.134628
v -0.015139 -0.028473 0.134628
v -0.015139 -0.009491 0.134628
v -0.045417 -0.068334 0.056095
v -0.045417 -0.068334 0.018698
v -0.015139 -0.068334 0.056095
v -0.015139 -0.068334 0.018698
v -0.099919 0.009491 0.123409
v -0.099919 0.028473 0.123409
v -0.109002 0.009491 0.093491
v -0.109002 0.028473 0.093491
v -0.075696 0.009491 0.134628
v -0.075696 0.028473 0.134628
v -0.099919 0.047454 0.123409
v -0.096891 0.060742 0.119669
v -0.109002 0.047454 0.093491
v -0.099919 0.062640 0.093491
v -0.075696 0.047454 0.134628
v -0.075696 0.062640 0.123409
v -0.075696 0.068334 0.093491
v -0.109002 0.009491 0.056095
v -0.109002 0.028473 0.056095
v -0.109002 0.009491 0.018698
v -0.109002 0.028473 0.018698
v -0.109002 0.047454 0.056095
v -0.099919 0.062640 0.056095
v -0.109002 0.047454 0.018698
v -0.099919 0.062640 0.018698
v -0.075696 0.068334 0.056095
v -0.075696 0.068334 0.018698
v -0.045417 0.009491 0.134628
v -0.045417 0.028473 0.134628
v -0.015139 0.009491 0.134628
v -0.015139 0.028473 0.134628
v -0.045417 0.047454 0.134628
v -0.045417 0.062640 0.123409
v -0.045417 0.068334 0.093491
v -0.015139 0.047454 0.134628
v -0.015139 0.062640 0.123409
v -0.015139 0.068334 0.093491
v -0.045417 0.068334 0.056095
v -0.045417 0.068334 0.018698
v -0.015139 0.068334 0.056095
v -0.015139 0.068334 0.018698
v -0.099919 -0.062640 -0.018698
v -0.109002 -0.047454 -0.018698
v -0.099919 -0.062640 -0.056095
v -0.109002 -0.047454 -0.056095
v -0.075696 -0.068334 -0.018698
v -0.075696 -0.068334 -0.056095
v -0.109002 -0.028473 -0.018698
v -0.109002 -0.009491 -0.018698
v -0.109002 -0.028473 -0.056095
v -0.109002 -0.009491 -0.056095
v -0.099919 -0.062640 -0.093491
v -0.109002 -0.047454 -0.093491
v -0.096891 -0.060742 -0.119669
v -0.099919 -0.047454 -0.123409
v -0.075696 -0.068334 -0.093491
v -0.075696 -0.062640 -0.123409
v -0.075696 -0.047454 -0.134628
v -0.109002 -0.028473 -0.093491
v -0.109002 -0.009491 -0.093491
v -0.099919 -0.028473 -0.123409
v -0.099919 -0.009491 -0.123409
v -0.075696 -0.028473 -0.134628
v -0.075696 -0.009491 -0.134628
v -0.045417 -0.068334 -0.018698
v -0.045417 -0.068334 -0.056095
v -0.015139 -0.068334 -0.018698
v -0.015139 -0.068334 -0.056095
v -0.045417 -0.068334 -0.093491
v -0.045417 -0.062640 -0.123409
v -0.045417 -0.047454 -0.134628
v -0.015139 -0.068334 -0.093491
v -0.015139 -0.062640 -0.123409
v -0.015139 -0.047454 -0.134628
v -0.045417 -0.028473 -0.134628
v -0.045417 -0.009491 -0.134628
v -0.015139 -0.028473 -0.134628
v -0.015139 -0.009491 -0.134628
v -0.109002 0.009491 -0.018698
v -0.109002 0.028473 -0.018698
v -0.109002 0.009491 -0.056095
v -0.109002 0.028473 -0.056095
v -0.109002 0.047454 -0.018698
v -0.099919 0.062640 -0.018698
v -0.109002 0.047454 -0.056095
v -0.099919 0.062640 -0.056095
v -0.075696 0.068334 -0.018698
v -0.075696 0.068334 -0.056095
v -0.109002 0.009491 -0.093491
v -0.109002 0.028473 -0.093491
v -0.099919 0.009491 -0.123409
v -0.099919 0.028473 -0.123409
v -0.075696 0.009491 -0.134628
v -0.075696 0.028473 -0.134628
v -0.109002 0.047454 -0.093491
v -0.099919 0.062640 -0.093491
v -0.099919 0.047454 -0.123409
v -0.096891 0.060742 -0.119669
v -0.075696 0.068334 -0.093491
v -0.075696 0.047454 -0.134628
v -0.075696 0.062640 -0.123409
v -0.045417 0.068334 -0.018698
v -0.045417 0.068334 -0.056095
v -0.015139 0.068334 -0.018698
v -0.015139 0.068334 -0.056095
v -0.045417 0.009491 -0.134628
v -0.045417 0.028473 -0.134628
v -0.015139 0.009491 -0.134628
v -0.015139 0.028473 -0.134628
v -0.045417 0.068334 -0.093491
v -0.045417 0.047454 -0.134628
v -0.045417 0.062640 -0.123409
v -0.015139 0.068334 -0.093491
v -0.015139 0.047454 -0.134628
v -0.015139 0.062640 -0.123409
v 0.015139 -0.062640 0.123409
v 0.015139 -0.047454 0.134628
v 0.015139 -0.068334 0.093491
v 0.045417 -0.062640 0.123409
v 0.045417 -0.047454 0.134628
v 0.045417 -0.068334 0.093491
v 0.015139 -0.028473 0.134628
v 0.015139 -0.009491 0.134628
v 0.045417 -0.028473 0.134628
v 0.045417 -0.009491 0.134628
v 0.015139 -0.068334 0.056095
v 0.015139 -0.068334 0.018698
v 0.045417 -0.068334 0.056095
v 0.045417 -0.068334 0.018698
v 0.075696 -0.062640 0.123409
v 0.075696 -0.047454 0.134628
v 0.075696 -0.068334 0.093491
v 0.096891 -0.060742 0.119669
v 0.099918 -0.047454 0.123409
v 0.099918 -0.062640 0.093491
v 0.109002 -0.047454 0.093491
v 0.075696 -0.028473 0.134628
v 0.075696 -0.009491 0.134628
v 0.099918 -0.028473 0.123409
v 0.099918 -0.009491 0.123409
v 0.109002 -0.028473 0.093491
v 0.109002 -0.009491 0.093491
v 0.075696 -0.068334 0.056095
v 0.075696 -0.068334 0.018698
v 0.099918 -0.062640 0.056095
v 0.109002 -0.047454 0.056095
v 0.099918 -0.062640 0.018698
v 0.109002 -0.047454 0.018698
v 0.109002 -0.028473 0.056095
v 0.109002 -0.009491 0.056095
v 0.109002 -0.028473 0.018698
v 0.109002 -0.009491 0.018698
v 0.015139 0.009491 0.134628
v 0.015139 0.028473 0.134628
v 0.045417 0.009491 0.134628
v 0.045417 0.028473 0.134628
v 0.015139 0.047454 0.134628
v 0.015139 0.062640 0.123409
v 0.015139 0.068334 0.093491
v 0.045417 0.047454 0.134628
v 0.045417 0.062640 0.123409
v 0.045417 0.068334 0.093491
v 0.015139 0.068334 0.056095
v 0.015139 0.068334 0.018698
v 0.045417 0.068334 0.056095
v 0.045417 0.068334 0.018698
v 0.075696 0.009491 0.134628
v 0.075696 0.028473 0.134628
v 0.099918 0.009491 0.123409
v 0.099918 0.028473 0.123409
v 0.109002 0.009491 0.093491
v 0.109002 0.028473 0.093491
v 0.075696 0.047454 0.134628
v 0.075696 0.062640 0.123409
v 0.075696 0.068334 0.093491
v 0.099918 0.047454 0.123409
v 0.096891 0.060742 0.119669
v 0.109002 0.047454 0.093491
v 0.099918 0.062640 0.093491
v 0.109002 0.009491 0.056095
v 0.109002 0.028473 0.056095
v 0.109002 0.009491 0.018698
v 0.109002 0.028473 0.018698
v 0.075696 0.068334 0.056095
v 0.075696 0.068334 0.018698
v 0.109002 0.047454 0.056095
v 0.099918 0.062640 0.056095
v 0.109002 0.047454 0.018698
v 0.099918 0.062640 0.018698
v 0.015139 -0.068334 -0.018698
v 0.015139 -0.068334 -0.056095
v 0.045417 -0.068334 -0.018698
v 0.045417 -0.068334 -0.056095
v 0.015139 -0.068334 -0.093491
v 0.015139 -0.062640 -0.123409
v 0.015139 -0.047454 -0.134628
v 0.045417 -0.068334 -0.093491
v 0.045417 -0.062640 -0.123409
v 0.045417 -0.047454 -0.134628
v 0.015139 -0.028473 -0.134628
v 0.015139 -0.009491 -0.134628
v 0.045417 -0.028473 -0.134628
v 0.045417 -0.009491 -0.134628
v 0.075696 -0.068334 -0.018698
v 0.075696 -0.068334 -0.056095
v 0.099918 -0.062640 -0.018698
v 0.109002 -0.047454 -0.018698
v 0.099918 -0.062640 -0.056095
v 0.109002 -0.047454 -0.056095
v 0.109002 -0.028473 -0.018698
v 0.109002 -0.009491 -0.018698
v 0.109002 -0.028473 -0.056095
v 0.109002 -0.009491 -0.056095
v 0.075696 -0.068334 -0.093491
v 0.075696 -0.062640 -0.123409
v 0.075696 -0.047454 -0.134628
v 0.099918 -0.062640 -0.093491
v 0.109002 -0.047454 -0.093491
v 0.096891 -0.060742 -0.119669
v 0.099918 -0.047454 -0.123409
v 0.075696 -0.028473 -0.134628
v 0.075696 -0.009491 -0.134628
v 0.109002 -0.028473 -0.093491
v 0.109002 -0.009491 -0.093491
v 0.099918 -0.028473 -0.123409
v 0.099918 -0.009491 -0.123409
v 0.015139 0.068334 -0.018698
v 0.015139 0.068334 -0.056095
v 0.045417 0.068334 -0.018698
v 0.045417 0.068334 -0.056095
v 0.015139 0.009491 -0.134628
v 0.015139 0.028473 -0.134628
v 0.045417 0.009491 -0.134628
v 0.045417 0.028473 -0.134628
v 0.015139 0.068334 -0.093491
v 0.015139 0.047454 -0.134628
v 0.015139 0.062640 -0.123409
v 0.045417 0.068334 -0.093491
v 0.045417 0.047454 -0.134628
v 0.045417 0.062640 -0.123409
v 0.109002 0.009491 -0.018698
v 0.109002 0.028473 -0.018698
v 0.109002 0.009491 -0.056095
v 0.109002 0.028473 -0.056095
v 0.075696 0.068334 -0.018698
v 0.075696 0.068334 -0.056095
v 0.109002 0.047454 -0.018698
v 0.099918 0.062640 -0.018698
v 0.109002 0.047454 -0.056095
v 0.099918 0.062640 -0.056095
v 0.075696 0.009491 -0.134628
v 0.075696 0.028473 -0.134628
v 0.109002 0.009491 -0.093491
v 0.109002 0.028473 -0.093491
v 0.099918 0.009491 -0.123409
v 0.099918 0.028473 -0.123409
v 0.075696 0.068334 -0.093491
v 0.075696 0.047454 -0.134628
v 0.075696 0.062640 -0.123409
v 0.109002 0.047454 -0.093491
v 0.099918 0.062640 -0.093491
v 0.099918 0.047454 -0.123409
v 0.096891 0.060742 -0.119669
vn -0.8904 -0.4058 0.2060
vn -0.2939 -0.4689 0.8329
vn -0.1745 -0.9745 0.1413
vn -0.9569 -0.0000 0.2905
vn -0.4203 -0.0000 0.9074
vn -0.8582 -0.5133 -0.0000
vn -0.2289 -0.9735 -0.0000
vn -1.0000 -0.0000 -0.0000
vn -0.0000 -0.5942 0.8043
vn -0.0000 -0.9824 0.1870
vn -0.0000 -0.0000 1.0000
vn -0.0000 -1.0000 -0.0000
vn -0.8904 0.4058 0.2060
vn -0.2939 0.4689 0.8329
vn -0.1745 0.9745 0.1413
vn -0.8582 0.5133 -0.0000
vn -0.2289 0.9735 -0.0000
vn -0.0000 0.5942 0.8043
vn -0.0000 0.9824 0.1870
vn -0.0000 1.0000 -0.0000
vn -0.8904 -0.4058 -0.2060
vn -0.2939 -0.4689 -0.8329
vn -0.1745 -0.9745 -0.1413
vn -0.9569 -0.0000 -0.2905
vn -0.4203 -0.0000 -0.9074
vn -0.0000 -0.5942 -0.8043
vn -0.0000 -0.9824 -0.1870
vn -0.0000 -0.0000 -1.0000
vn -0.8904 0.4058 -0.2060
vn -0.2939 0.4689 -0.8329
vn -0.1745 0.9745 -0.1413
vn -0.0000 0.5942 -0.8043
vn -0.0000 0.9824 -0.1870
vn 0.8904 -0.4058 0.2060
vn 0.2939 -0.4689 0.8329
vn 0.1745 -0.9745 0.1413
vn 0.9569 -0.0000 0.2905
vn 0.4203 -0.0000 0.9074
vn 0.8582 -0.5133 -0.0000
vn 0.2289 -0.9735 -0.0000
vn 1.0000 -0.0000 -0.0000
vn 0.8904 0.4058 0.2060
vn 0.2939 0.4689 0.8329
vn 0.1745 0.9745 0.1413
vn 0.8582 0.5133 -0.0000
vn 0.2289 0.9735 -0.0000
vn 0.8904 -0.4058 -0.2060
vn 0.2939 -0.4689 -0.8329
vn 0.1745 -0.9745 -0.1413
vn 0.9569 -0.0000 -0.2905
vn 0.4203 -0.0000 -0.9074
vn 0.8904 0.4058 -0.2060
vn 0.2939 0.4689 -0.8329
vn 0.1745 0.9745 -0.1413
s 0
usemtl Material
f 1//1 2//1 4//1 3//1
f 1//2 5//2 6//2 2//2
f 1//3 3//3 7//3 5//3
f 8//4 9//4 11//4 10//4
f 8//5 12//5 13//5 9//5
f 14//6 15//6 17//6 16//6
f 14//7 16//7 19//7 18//7
f 20//8 21//8 23//8 22//8
f 24//9 27//9 28//9 25//9
f 24//10 26//10 29//10 27//10
f 30//11 32//11 33//11 31//11
f 34//12 35//12 37//12 36//12
f 5//9 24//9 25//9 6//9
f 5//10 7//10 26//10 24//10
f 12//11 30//11 31//11 13//11
f 18//12 19//12 35//12 34//12
f 3//6 4//6 15//6 14//6
f 3//7 14//7 18//7 7//7
f 26//12 34//12 36//12 29//12
f 10//8 11//8 21//8 20//8
f 2//4 8//4 10//4 4//4
f 2//5 6//5 12//5 8//5
f 15//8 20//8 22//8 17//8
f 25//11 28//11 32//11 30//11
f 4//8 10//8 20//8 15//8
f 6//11 25//11 30//11 12//11
f 7//12 18//12 34//12 26//12
f 38//4 39//4 41//4 40//4
f 38//5 42//5 43//5 39//5
f 44//13 45//13 47//13 46//13
f 44//14 48//14 49//14 45//14
f 49//15 50//15 47//15 45//15
f 51//8 52//8 54//8 53//8
f 55//16 56//16 58//16 57//16
f 59//17 60//17 58//17 56//17
f 61//11 63//11 64//11 62//11
f 65//18 68//18 69//18 66//18
f 69//19 70//19 67//19 66//19
f 73//20 74//20 72//20 71//20
f 42//11 61//11 62//11 43//11
f 48//18 65//18 66//18 49//18
f 66//19 67//19 50//19 49//19
f 71//20 72//20 60//20 59//20
f 40//8 41//8 52//8 51//8
f 46//16 47//16 56//16 55//16
f 50//17 59//17 56//17 47//17
f 70//20 73//20 71//20 67//20
f 39//4 44//4 46//4 41//4
f 39//5 43//5 48//5 44//5
f 52//8 55//8 57//8 54//8
f 62//11 64//11 68//11 65//11
f 41//8 46//8 55//8 52//8
f 43//11 62//11 65//11 48//11
f 67//20 71//20 59//20 50//20
f 75//6 76//6 78//6 77//6
f 75//7 77//7 80//7 79//7
f 81//8 82//8 84//8 83//8
f 85//21 86//21 88//21 87//21
f 88//22 91//22 90//22 87//22
f 85//23 87//23 90//23 89//23
f 92//24 93//24 95//24 94//24
f 95//25 97//25 96//25 94//25
f 98//12 99//12 101//12 100//12
f 104//26 107//26 106//26 103//26
f 102//27 103//27 106//27 105//27
f 109//28 111//28 110//28 108//28
f 79//12 80//12 99//12 98//12
f 91//26 104//26 103//26 90//26
f 89//27 90//27 103//27 102//27
f 97//28 109//28 108//28 96//28
f 77//6 78//6 86//6 85//6
f 77//7 85//7 89//7 80//7
f 99//12 102//12 105//12 101//12
f 83//8 84//8 93//8 92//8
f 76//8 81//8 83//8 78//8
f 86//24 92//24 94//24 88//24
f 94//25 96//25 91//25 88//25
f 108//28 110//28 107//28 104//28
f 78//8 83//8 92//8 86//8
f 96//28 108//28 104//28 91//28
f 80//12 89//12 102//12 99//12
f 112//8 113//8 115//8 114//8
f 116//16 117//16 119//16 118//16
f 120//17 121//17 119//17 117//17
f 122//24 123//24 125//24 124//24
f 125//25 127//25 126//25 124//25
f 128//29 129//29 131//29 130//29
f 131//30 134//30 133//30 130//30
f 132//31 134//31 131//31 129//31
f 137//20 138//20 136//20 135//20
f 140//28 142//28 141//28 139//28
f 145//32 148//32 147//32 144//32
f 146//33 148//33 145//33 143//33
f 135//20 136//20 121//20 120//20
f 127//28 140//28 139//28 126//28
f 134//32 145//32 144//32 133//32
f 143//33 145//33 134//33 132//33
f 114//8 115//8 123//8 122//8
f 118//16 119//16 129//16 128//16
f 121//17 132//17 129//17 119//17
f 138//20 146//20 143//20 136//20
f 113//8 116//8 118//8 115//8
f 123//24 128//24 130//24 125//24
f 130//25 133//25 127//25 125//25
f 144//28 147//28 142//28 140//28
f 115//8 118//8 128//8 123//8
f 133//28 144//28 140//28 127//28
f 136//20 143//20 132//20 121//20
f 149//9 152//9 153//9 150//9
f 149//10 151//10 154//10 152//10
f 155//11 157//11 158//11 156//11
f 159//12 160//12 162//12 161//12
f 168//34 169//34 167//34 166//34
f 163//35 166//35 167//35 164//35
f 163//36 165//36 168//36 166//36
f 174//37 175//37 173//37 172//37
f 170//38 172//38 173//38 171//38
f 180//39 181//39 179//39 178//39
f 176//40 177//40 180//40 178//40
f 184//41 185//41 183//41 182//41
f 152//9 163//9 164//9 153//9
f 152//10 154//10 165//10 163//10
f 157//11 170//11 171//11 158//11
f 161//12 162//12 177//12 176//12
f 151//12 159//12 161//12 154//12
f 178//39 179//39 169//39 168//39
f 165//40 176//40 178//40 168//40
f 182//41 183//41 175//41 174//41
f 150//11 153//11 157//11 155//11
f 169//37 174//37 172//37 167//37
f 164//38 167//38 172//38 170//38
f 181//41 184//41 182//41 179//41
f 179//41 182//41 174//41 169//41
f 153//11 164//11 170//11 157//11
f 154//12 161//12 176//12 165//12
f 186//11 188//11 189//11 187//11
f 190//18 193//18 194//18 191//18
f 194//19 195//19 192//19 191//19
f 198//20 199//20 197//20 196//20
f 204//37 205//37 203//37 202//37
f 200//38 202//38 203//38 201//38
f 211//42 212//42 210//42 209//42
f 206//43 209//43 210//43 207//43
f 210//44 212//44 208//44 207//44
f 215//41 216//41 214//41 213//41
f 221//45 222//45 220//45 219//45
f 220//46 222//46 218//46 217//46
f 188//11 200//11 201//11 189//11
f 193//18 206//18 207//18 194//18
f 207//19 208//19 195//19 194//19
f 217//20 218//20 199//20 198//20
f 213//41 214//41 205//41 204//41
f 195//20 198//20 196//20 192//20
f 219//45 220//45 212//45 211//45
f 212//46 220//46 217//46 208//46
f 187//11 189//11 193//11 190//11
f 205//37 211//37 209//37 203//37
f 201//38 203//38 209//38 206//38
f 216//41 221//41 219//41 214//41
f 214//41 219//41 211//41 205//41
f 189//11 201//11 206//11 193//11
f 208//20 217//20 198//20 195//20
f 223//12 224//12 226//12 225//12
f 229//26 232//26 231//26 228//26
f 227//27 228//27 231//27 230//27
f 234//28 236//28 235//28 233//28
f 241//39 242//39 240//39 239//39
f 237//40 238//40 241//40 239//40
f 245//41 246//41 244//41 243//41
f 252//47 253//47 251//47 250//47
f 249//48 253//48 252//48 248//48
f 247//49 248//49 252//49 250//49
f 258//50 259//50 257//50 256//50
f 255//51 259//51 258//51 254//51
f 225//12 226//12 238//12 237//12
f 232//26 249//26 248//26 231//26
f 230//27 231//27 248//27 247//27
f 236//28 255//28 254//28 235//28
f 224//12 227//12 230//12 226//12
f 250//39 251//39 242//39 241//39
f 238//40 247//40 250//40 241//40
f 256//41 257//41 246//41 245//41
f 233//28 235//28 232//28 229//28
f 242//41 245//41 243//41 240//41
f 253//50 258//50 256//50 251//50
f 254//51 258//51 253//51 249//51
f 251//41 256//41 245//41 242//41
f 235//28 254//28 249//28 232//28
f 226//12 230//12 247//12 238//12
f 262//20 263//20 261//20 260//20
f 265//28 267//28 266//28 264//28
f 270//32 273//32 272//32 269//32
f 271//33 273//33 270//33 268//33
f 276//41 277//41 275//41 274//41
f 282//45 283//45 281//45 280//45
f 281//46 283//46 279//46 278//46
f 288//50 289//50 287//50 286//50
f 285//51 289//51 288//51 284//51
f 295//52 296//52 294//52 293//52
f 292//53 296//53 295//53 291//53
f 294//54 296//54 292//54 290//54
f 278//20 279//20 263//20 262//20
f 267//28 285//28 284//28 266//28
f 273//32 292//32 291//32 272//32
f 290//33 292//33 273//33 271//33
f 286//41 287//41 277//41 276//41
f 263//20 271//20 268//20 261//20
f 293//45 294//45 283//45 282//45
f 283//46 294//46 290//46 279//46
f 269//28 272//28 267//28 265//28
f 277//41 282//41 280//41 275//41
f 289//50 295//50 293//50 287//50
f 291//51 295//51 289//51 285//51
f 287//41 293//41 282//41 277//41
f 272//28 291//28 285//28 267//28
f 279//20 290//20 271//20 263//20
f 27//9 149//9 150//9 28//9
f 27//10 29//10 151//10 149//10
f 32//11 155//11 156//11 33//11
f 36//12 37//12 160//12 159//12
f 28//11 150//11 155//11 32//11
f 29//12 36//12 159//12 151//12
f 63//11 186//11 187//11 64//11
f 68//18 190//18 191//18 69//18
f 191//19 192//19 70//19 69//19
f 196//20 197//20 74//20 73//20
f 64//11 187//11 190//11 68//11
f 192//20 196//20 73//20 70//20
f 100//12 101//12 224//12 223//12
f 107//26 229//26 228//26 106//26
f 105//27 106//27 228//27 227//27
f 111//28 234//28 233//28 110//28
f 110//28 233//28 229//28 107//28
f 101//12 105//12 227//12 224//12
f 260//20 261//20 138//20 137//20
f 142//28 265//28 264//28 141//28
f 148//32 270//32 269//32 147//32
f 268//33 270//33 148//33 146//33
f 147//28 269//28 265//28 142//28
f 261//20 268//20 146//20 138//20
f 16//6 17//6 76//6 75//6
f 16//7 75//7 79//7 19//7
f 35//12 98//12 100//12 37//12
f 22//8 23//8 82//8 81//8
f 17//8 22//8 81//8 76//8
f 19//12 79//12 98//12 35//12
f 160//12 223//12 225//12 162//12
f 239//39 240//39 181//39 180//39
f 177//40 237//40 239//40 180//40
f 243//41 244//41 185//41 184//41
f 240//41 243//41 184//41 181//41
f 162//12 225//12 237//12 177//12
f 53//8 54//8 113//8 112//8
f 57//16 58//16 117//16 116//16
f 60//17 120//17 117//17 58//17
f 74//20 137//20 135//20 72//20
f 54//8 57//8 116//8 113//8
f 72//20 135//20 120//20 60//20
f 274//41 275//41 216//41 215//41
f 199//20 262//20 260//20 197//20
f 280//45 281//45 222//45 221//45
f 222//46 281//46 278//46 218//46
f 275//41 280//41 221//41 216//41
f 218//20 278//20 262//20 199//20
f 9//4 38//4 40//4 11//4
f 9//5 13//5 42//5 38//5
f 21//8 51//8 53//8 23//8
f 31//11 33//11 63//11 61//11
f 11//8 40//8 51//8 21//8
f 13//11 31//11 61//11 42//11
f 82//8 112//8 114//8 84//8
f 93//24 122//24 124//24 95//24
f 124//25 126//25 97//25 95//25
f 139//28 141//28 111//28 109//28
f 84//8 114//8 122//8 93//8
f 126//28 139//28 109//28 97//28
f 156//11 158//11 188//11 186//11
f 175//37 204//37 202//37 173//37
f 171//38 173//38 202//38 200//38
f 185//41 215//41 213//41 183//41
f 183//41 213//41 204//41 175//41
f 158//11 171//11 200//11 188//11
f 264//28 266//28 236//28 234//28
f 246//41 276//41 274//41 244//41
f 259//50 288//50 286//50 257//50
f 284//51 288//51 259//51 255//51
f 257//41 286//41 276//41 246//41
f 266//28 284//28 255//28 236//28
f 23//8 53//8 112//8 82//8
f 244//41 274//41 215//41 185//41
f 33//11 156//11 186//11 63//11
f 141//28 264//28 234//28 111//28
f 37//12 100//12 223//12 160//12
f 197//20 260//20 137//20 74//20
